<svg width="18" height="18" viewBox="0 0 18 18" fill="none" xmlns="http://www.w3.org/2000/svg">
<path d="M6.0006 16.5H12.0006C15.0156 16.5 15.5556 15.2925 15.7131 13.8225L16.2756 7.8225C16.4781 5.9925 15.9531 4.5 12.7506 4.5H5.2506C2.0481 4.5 1.5231 5.9925 1.7256 7.8225L2.2881 13.8225C2.4456 15.2925 2.9856 16.5 6.0006 16.5Z" stroke="#292D32" stroke-width="1.5" stroke-miterlimit="10" stroke-linecap="round" stroke-linejoin="round"/>
<path d="M6 4.5V3.9C6 2.5725 6 1.5 8.4 1.5H9.6C12 1.5 12 2.5725 12 3.9V4.5" stroke="#292D32" stroke-width="1.5" stroke-miterlimit="10" stroke-linecap="round" stroke-linejoin="round"/>
<path d="M10.5 9.75V10.5C10.5 10.5075 10.5 10.5075 10.5 10.515C10.5 11.3325 10.4925 12 9 12C7.515 12 7.5 11.34 7.5 10.5225V9.75C7.5 9 7.5 9 8.25 9H9.75C10.5 9 10.5 9 10.5 9.75Z" stroke="#292D32" stroke-width="1.5" stroke-miterlimit="10" stroke-linecap="round" stroke-linejoin="round"/>
<path d="M16.2375 8.25C14.505 9.51 12.525 10.26 10.5 10.515" stroke="#292D32" stroke-width="1.5" stroke-miterlimit="10" stroke-linecap="round" stroke-linejoin="round"/>
<path d="M1.96484 8.45312C3.65234 9.60812 5.55734 10.3056 7.49984 10.5231" stroke="#292D32" stroke-width="1.5" stroke-miterlimit="10" stroke-linecap="round" stroke-linejoin="round"/>
</svg>
