<svg width="56" height="56" viewBox="0 0 56 56" fill="none" xmlns="http://www.w3.org/2000/svg">
<rect x="4" y="4" width="48" height="48" rx="24" fill="#E3F9E1"/>
<g clip-path="url(#clip0_1_37479)">
<path d="M30 18H22C21.4696 18 20.9609 18.2107 20.5858 18.5858C20.2107 18.9609 20 19.4696 20 20V36C20 36.5304 20.2107 37.0391 20.5858 37.4142C20.9609 37.7893 21.4696 38 22 38H34C34.5304 38 35.0391 37.7893 35.4142 37.4142C35.7893 37.0391 36 36.5304 36 36V24M30 18L36 24M30 18V24H36M32 29H24M32 33H24M26 25H24" stroke="#2CAE21" stroke-width="2" stroke-linecap="round" stroke-linejoin="round"/>
</g>
<rect x="4" y="4" width="48" height="48" rx="24" stroke="#F5FCFE" stroke-width="8"/>
<defs>
<clipPath id="clip0_1_37479">
<rect width="24" height="24" fill="white" transform="translate(16 16)"/>
</clipPath>
</defs>
</svg>
