<svg width="56" height="56" viewBox="0 0 56 56" fill="none" xmlns="http://www.w3.org/2000/svg">
<rect x="4" y="4" width="48" height="48" rx="24" fill="#ECF8FE"/>
<g clip-path="url(#clip0_1_37490)">
<path d="M38.0004 32.9201V35.9201C38.0016 36.1986 37.9445 36.4743 37.8329 36.7294C37.7214 36.9846 37.5577 37.2137 37.3525 37.402C37.1473 37.5902 36.905 37.7336 36.6412 37.8228C36.3773 37.912 36.0978 37.9452 35.8204 37.9201C32.7433 37.5857 29.7874 36.5342 27.1904 34.8501C24.7742 33.3148 22.7258 31.2663 21.1904 28.8501C19.5004 26.2413 18.4487 23.2711 18.1204 20.1801C18.0954 19.9036 18.1283 19.6249 18.2169 19.3617C18.3055 19.0986 18.448 18.8568 18.6352 18.6517C18.8224 18.4466 19.0502 18.2828 19.3042 18.1706C19.5582 18.0584 19.8328 18.0004 20.1104 18.0001H23.1104C23.5957 17.9953 24.0662 18.1672 24.4342 18.4836C24.8022 18.8001 25.0425 19.2395 25.1104 19.7201C25.237 20.6802 25.4719 21.6228 25.8104 22.5301C25.945 22.888 25.9741 23.277 25.8943 23.651C25.8146 24.0249 25.6293 24.3682 25.3604 24.6401L24.0904 25.9101C25.514 28.4136 27.5869 30.4865 30.0904 31.9101L31.3604 30.6401C31.6323 30.3712 31.9756 30.1859 32.3495 30.1062C32.7235 30.0264 33.1125 30.0556 33.4704 30.1901C34.3777 30.5286 35.3204 30.7635 36.2804 30.8901C36.7662 30.9586 37.2098 31.2033 37.527 31.5776C37.8441 31.9519 38.0126 32.4297 38.0004 32.9201Z" stroke="#0EA0E4" stroke-width="2" stroke-linecap="round" stroke-linejoin="round"/>
</g>
<rect x="4" y="4" width="48" height="48" rx="24" stroke="#F5FCFE" stroke-width="8"/>
<defs>
<clipPath id="clip0_1_37490">
<rect width="24" height="24" fill="white" transform="translate(16 16)"/>
</clipPath>
</defs>
</svg>
