<svg width="36" height="36" viewBox="0 0 36 36" fill="none" xmlns="http://www.w3.org/2000/svg">
<rect x="2" y="2" width="32" height="32" rx="16" fill="#ECF8FE"/>
<path d="M18.6665 11.334H13.9998C13.6462 11.334 13.3071 11.4745 13.057 11.7245C12.807 11.9746 12.6665 12.3137 12.6665 12.6673V23.334C12.6665 23.6876 12.807 24.0267 13.057 24.2768C13.3071 24.5268 13.6462 24.6673 13.9998 24.6673H21.9998C22.3535 24.6673 22.6926 24.5268 22.9426 24.2768C23.1927 24.0267 23.3332 23.6876 23.3332 23.334V16.0007M18.6665 11.334L23.3332 16.0007M18.6665 11.334V16.0007H23.3332" stroke="#0EA0E4" stroke-width="1.33333" stroke-linecap="round" stroke-linejoin="round"/>
<rect x="2" y="2" width="32" height="32" rx="16" stroke="#F5FCFE" stroke-width="4"/>
</svg>
