<svg width="50" height="51" viewBox="0 0 50 51" fill="none" xmlns="http://www.w3.org/2000/svg">
<rect y="0.173828" width="50" height="50" rx="25" fill="#FEA42E"/>
<path d="M24.6938 39.5801C26.3438 39.5801 27.3188 38.3801 27.3188 36.5801C27.3188 33.5051 25.4437 31.8551 25.2188 25.7801C30.3937 29.0051 30.8438 31.4051 33.4688 32.9801C34.1438 33.3551 34.6688 33.5051 35.2688 33.5051C36.1688 33.5051 36.9188 33.0551 37.4438 32.2301C37.6688 31.8551 37.7438 31.4051 37.7438 30.9551C37.7438 30.0551 37.1438 29.1551 36.0938 28.5551C33.3938 27.0551 30.9187 27.8051 25.5938 25.0301C30.9187 22.1051 33.3938 22.8551 36.0938 21.3551C37.1438 20.6801 37.7438 19.8551 37.7438 18.8801C37.7438 18.5051 37.6688 18.0551 37.4438 17.6051C36.9188 16.7801 36.1688 16.3301 35.2688 16.3301C34.6688 16.3301 34.1438 16.4801 33.4688 16.8551C30.8438 18.4301 30.3937 21.0551 25.2188 24.2051C25.3687 18.1301 27.3188 16.4051 27.3188 13.2551C27.3188 11.4551 26.3438 10.3301 24.6938 10.3301C23.1188 10.3301 22.1438 11.4551 22.1438 13.2551C22.1438 16.4051 24.2438 18.0551 24.3938 24.2051C19.0688 20.9801 18.6188 18.4301 15.9188 16.8551C15.3188 16.4801 14.7938 16.3301 14.1937 16.3301C13.2938 16.3301 12.5438 16.7801 12.0188 17.6051C11.7938 18.0551 11.7188 18.5051 11.7188 18.8801C11.7188 19.8551 12.3188 20.6801 13.3688 21.3551C16.0688 22.8551 18.3938 22.1051 23.8688 25.0301C18.5438 27.8801 15.9938 27.0551 13.3688 28.5551C12.3188 29.1551 11.7188 30.0551 11.7188 30.9551C11.7188 31.4051 11.7938 31.8551 12.0188 32.2301C12.5438 33.0551 13.2938 33.5051 14.1937 33.5051C14.7938 33.5051 15.3188 33.3551 15.9188 32.9801C18.6188 31.4051 19.0688 29.0801 24.3188 25.7801C24.0938 31.9301 22.1438 33.4301 22.1438 36.5801C22.1438 38.3801 23.1188 39.5801 24.6938 39.5801Z" fill="black"/>
</svg>
