<svg width="16" height="20" viewBox="0 0 16 20" fill="none" xmlns="http://www.w3.org/2000/svg">
<path d="M9.66659 1.66602H2.99992C2.55789 1.66602 2.13397 1.84161 1.82141 2.15417C1.50885 2.46673 1.33325 2.89065 1.33325 3.33268V16.666C1.33325 17.108 1.50885 17.532 1.82141 17.8445C2.13397 18.1571 2.55789 18.3327 2.99992 18.3327H12.9999C13.4419 18.3327 13.8659 18.1571 14.1784 17.8445C14.491 17.532 14.6666 17.108 14.6666 16.666V6.66602M9.66659 1.66602L14.6666 6.66602M9.66659 1.66602V6.66602H14.6666M11.3333 10.8327H4.66659M11.3333 14.166H4.66659M6.33325 7.49935H4.66659" stroke="#98A2B3" stroke-width="2" stroke-linecap="round" stroke-linejoin="round"/>
</svg>
