<svg width="18" height="20" viewBox="0 0 18 20" fill="none" xmlns="http://www.w3.org/2000/svg">
<path d="M16.5 8.33398C16.5 14.1673 9 19.1673 9 19.1673C9 19.1673 1.5 14.1673 1.5 8.33398C1.5 6.34486 2.29018 4.43721 3.6967 3.03068C5.10322 1.62416 7.01088 0.833984 9 0.833984C10.9891 0.833984 12.8968 1.62416 14.3033 3.03068C15.7098 4.43721 16.5 6.34486 16.5 8.33398Z" stroke="#98A2B3" stroke-width="1.66667" stroke-linecap="round" stroke-linejoin="round"/>
<path d="M9 10.834C10.3807 10.834 11.5 9.7147 11.5 8.33398C11.5 6.95327 10.3807 5.83398 9 5.83398C7.61929 5.83398 6.5 6.95327 6.5 8.33398C6.5 9.7147 7.61929 10.834 9 10.834Z" stroke="#98A2B3" stroke-width="1.66667" stroke-linecap="round" stroke-linejoin="round"/>
</svg>
