<svg width="576" height="402" viewBox="0 0 576 402" fill="none" xmlns="http://www.w3.org/2000/svg">
<g id="No Chat History">
<path id="Fill 3" fill-rule="evenodd" clip-rule="evenodd" d="M81.5446 65.0332H70.3052C59.9725 65.0332 51.5186 73.5754 51.5186 84.0159C51.5186 94.4564 59.9725 102.999 70.3052 102.999H81.5446C91.8773 102.999 100.331 94.4564 100.331 84.0159C100.331 73.5754 91.8773 65.0332 81.5446 65.0332" fill="#F1F2F7"/>
<path id="Fill 10" fill-rule="evenodd" clip-rule="evenodd" d="M383.021 286.522C395.863 267.854 403.22 245.716 403.03 222.025C402.505 156.129 343.801 103.177 271.913 103.751C200.025 104.326 142.176 158.212 142.703 224.108C143.229 290.002 201.933 342.955 273.82 342.382C299.504 342.176 323.395 335.162 343.473 323.228L397.182 335.874L383.021 286.522Z" fill="#D8DBEA"/>
<path id="Fill 12" fill-rule="evenodd" clip-rule="evenodd" d="M234.903 220.246C234.963 227.734 228.941 233.853 221.453 233.913C213.963 233.974 207.844 227.95 207.786 220.463C207.726 212.974 213.747 206.856 221.235 206.795C228.723 206.736 234.842 212.758 234.903 220.246" fill="#BEC0D6"/>
<path id="Fill 14" fill-rule="evenodd" clip-rule="evenodd" d="M283.714 220.245C283.774 227.734 277.752 233.853 270.263 233.913C262.775 233.972 256.656 227.95 256.597 220.463C256.536 212.974 262.558 206.855 270.047 206.795C277.535 206.736 283.654 212.758 283.714 220.245" fill="#BEC0D6"/>
<path id="Fill 16" fill-rule="evenodd" clip-rule="evenodd" d="M332.526 220.245C332.586 227.733 326.564 233.852 319.075 233.913C311.586 233.972 305.467 227.95 305.409 220.462C305.348 212.973 311.37 206.855 318.859 206.795C326.346 206.734 332.465 212.758 332.526 220.245" fill="#BEC0D6"/>
<path id="Fill 18" fill-rule="evenodd" clip-rule="evenodd" d="M104.734 296.285L102.104 298.997L99.3105 296.674C101.109 296.534 102.922 296.404 104.734 296.285" fill="#F1F2F7"/>
<path id="Fill 20" fill-rule="evenodd" clip-rule="evenodd" d="M129.141 315.265C129.141 323.876 131.895 331.893 136.628 338.642L131.605 356.646L151.163 351.887C158.517 356.164 167.237 358.653 176.597 358.653C202.808 358.653 224.054 339.227 224.054 315.265C224.054 291.301 202.808 271.875 176.597 271.875C150.387 271.875 129.141 291.301 129.141 315.265Z" fill="#FEA42E"/>
<path id="Fill 22" fill-rule="evenodd" clip-rule="evenodd" d="M188.801 315.268C188.801 318.263 191.228 320.691 194.224 320.691C197.219 320.691 199.648 318.263 199.648 315.268C199.648 312.273 197.219 309.844 194.224 309.844C191.228 309.844 188.801 312.273 188.801 315.268" fill="white"/>
<path id="Fill 24" fill-rule="evenodd" clip-rule="evenodd" d="M172.529 315.268C172.529 318.263 174.957 320.691 177.953 320.691C180.947 320.691 183.377 318.263 183.377 315.268C183.377 312.273 180.947 309.844 177.953 309.844C174.957 309.844 172.529 312.273 172.529 315.268" fill="white"/>
<path id="Fill 26" fill-rule="evenodd" clip-rule="evenodd" d="M153.548 315.268C153.548 318.263 155.976 320.691 158.971 320.691C161.966 320.691 164.395 318.263 164.395 315.268C164.395 312.273 161.966 309.844 158.971 309.844C155.976 309.844 153.548 312.273 153.548 315.268" fill="white"/>
<path id="Fill 30" fill-rule="evenodd" clip-rule="evenodd" d="M370.493 389.841C370.493 395.083 323.141 399.332 264.732 399.332C206.321 399.332 158.971 395.083 158.971 389.841C158.971 384.6 206.321 380.35 264.732 380.35C323.141 380.35 370.493 384.6 370.493 389.841" fill="#D8DBEA"/>
<path id="Fill 32" fill-rule="evenodd" clip-rule="evenodd" d="M556.501 378.999V378.999C546.061 378.999 537.519 370.456 537.519 360.016C537.519 349.575 546.061 341.033 556.501 341.033C566.942 341.033 575.484 349.575 575.484 360.016C575.484 370.456 566.942 378.999 556.501 378.999" fill="#E1E3EF"/>
<path id="Fill 33" fill-rule="evenodd" clip-rule="evenodd" d="M499.501 180.999V180.999C489.061 180.999 480.519 172.456 480.519 162.016C480.519 151.575 489.061 143.033 499.501 143.033C509.942 143.033 518.484 151.575 518.484 162.016C518.484 172.456 509.942 180.999 499.501 180.999" fill="#E1E3EF"/>
<path id="Fill 34" fill-rule="evenodd" clip-rule="evenodd" d="M262.501 39.9987V39.9987C252.061 39.9987 243.519 31.4564 243.519 21.0159C243.519 10.5754 252.061 2.0332 262.501 2.0332C272.942 2.0332 281.484 10.5754 281.484 21.0159C281.484 31.4564 272.942 39.9987 262.501 39.9987" fill="#E1E3EF"/>
<path id="Fill 35" fill-rule="evenodd" clip-rule="evenodd" d="M19.5013 219.999V219.999C9.06078 219.999 0.518555 211.456 0.518555 201.016C0.518555 190.575 9.06078 182.033 19.5013 182.033C29.9418 182.033 38.484 190.575 38.484 201.016C38.484 211.456 29.9418 219.999 19.5013 219.999" fill="#E1E3EF"/>
</g>
</svg>
