<svg width="18" height="18" viewBox="0 0 18 18" fill="none" xmlns="http://www.w3.org/2000/svg">
<path d="M15.375 8.47499V5.28001C15.375 2.25751 14.67 1.5 11.835 1.5H6.165C3.33 1.5 2.625 2.25751 2.625 5.28001V13.725C2.625 15.72 3.72001 16.1925 5.04751 14.7675L5.05499 14.76C5.66999 14.1075 6.60749 14.16 7.13999 14.8725L7.8975 15.885" stroke="#292D32" stroke-width="1.5" stroke-linecap="round" stroke-linejoin="round"/>
<path d="M6 5.25H12" stroke="#292D32" stroke-width="1.5" stroke-linecap="round" stroke-linejoin="round"/>
<path d="M6.75 8.25H11.25" stroke="#292D32" stroke-width="1.5" stroke-linecap="round" stroke-linejoin="round"/>
<path d="M13.6583 11.0782L11.0033 13.7332C10.8983 13.8382 10.8008 14.0332 10.7783 14.1757L10.6358 15.1882C10.5833 15.5557 10.8383 15.8107 11.2058 15.7582L12.2183 15.6157C12.3608 15.5932 12.5633 15.4957 12.6608 15.3907L15.3158 12.7357C15.7733 12.2782 15.9908 11.7457 15.3158 11.0707C14.6483 10.4032 14.1158 10.6207 13.6583 11.0782Z" stroke="#292D32" stroke-width="1.5" stroke-miterlimit="10" stroke-linecap="round" stroke-linejoin="round"/>
<path d="M13.2744 11.4609C13.4994 12.2709 14.1294 12.9009 14.9394 13.1259" stroke="#292D32" stroke-width="1.5" stroke-miterlimit="10" stroke-linecap="round" stroke-linejoin="round"/>
</svg>
