<svg width="204" height="190" viewBox="0 0 204 190" fill="none" xmlns="http://www.w3.org/2000/svg">
<path d="M103 66.1738C112.548 66.1738 121.705 69.9667 128.456 76.718C135.207 83.4693 139 92.626 139 102.174C139 111.722 135.207 120.878 128.456 127.63C121.705 134.381 112.548 138.174 103 138.174L103 102.174V66.1738Z" fill="#FEA42E"/>
<path d="M124 40.1738C124 18.0824 141.909 0.173828 164 0.173828H204V40.1738C204 62.2652 186.091 80.1738 164 80.1738C141.909 80.1738 124 62.2652 124 40.1738Z" fill="#0EA0E4"/>
<path fill-rule="evenodd" clip-rule="evenodd" d="M104.723 20.9516C104.723 17.2083 107.757 14.1738 111.5 14.1738C115.244 14.1738 118.278 17.2083 118.278 20.9516V28.1627L123.407 23.0336C126.054 20.3867 130.346 20.3867 132.993 23.0336C135.639 25.6804 135.639 29.9719 132.993 32.6188L127.716 37.8956H135.222C138.965 37.8956 142 40.9301 142 44.6734C142 48.4167 138.965 51.4512 135.222 51.4512H127.862L132.993 56.5819C135.639 59.2287 135.639 63.5202 132.993 66.1671C130.346 68.814 126.054 68.814 123.407 66.1671L118.278 61.038V68.3961C118.278 72.1393 115.244 75.1738 111.5 75.1738C107.757 75.1738 104.723 72.1393 104.723 68.3961V60.8887L99.4443 66.1671C96.7974 68.814 92.5059 68.814 89.859 66.1671C87.2121 63.5202 87.2121 59.2287 89.859 56.5819L94.9897 51.4512H87.7778C84.0345 51.4512 81 48.4167 81 44.6734C81 40.9301 84.0345 37.8956 87.7778 37.8956H95.1359L89.859 32.6188C87.2121 29.9719 87.2121 25.6804 89.859 23.0336C92.5059 20.3867 96.7974 20.3867 99.4442 23.0336L104.723 28.312V20.9516Z" fill="white"/>
</svg>
