<svg width="188" height="68" viewBox="0 0 188 68" fill="none" xmlns="http://www.w3.org/2000/svg">
<path d="M142.626 0.380859C154.66 0.38086 166.201 5.16132 174.71 13.6706C183.219 22.1799 188 33.7209 188 45.7548C188 57.7887 183.219 69.3298 174.71 77.8391C166.201 86.3483 154.66 91.1288 142.626 91.1288L142.626 45.7548V0.380859Z" fill="#0EA0E4"/>
<path d="M93.748 0.380859C105.782 0.38086 117.323 5.16132 125.832 13.6706C134.341 22.1799 139.122 33.7209 139.122 45.7548C139.122 57.7887 134.341 69.3298 125.832 77.8391C117.323 86.3483 105.782 91.1288 93.748 91.1288L93.748 45.7548V0.380859Z" fill="#22242F"/>
<circle cx="45.374" cy="45.7548" r="45.374" fill="#22242F"/>
</svg>
