<svg width="148" height="149" viewBox="0 0 148 149" fill="none" xmlns="http://www.w3.org/2000/svg">
<g opacity="0.7">
<path d="M-0.000976562 0.677734H3.99902V4.67773H-0.000976562V0.677734Z" fill="#FFA42E"/>
<path d="M23.999 0.677734H27.999V4.67773H23.999V0.677734Z" fill="#FFA42E"/>
<path d="M47.999 0.677734H51.999V4.67773H47.999V0.677734Z" fill="#FFA42E"/>
<path d="M71.999 0.677734H75.999V4.67773H71.999V0.677734Z" fill="#FFA42E"/>
<path d="M95.999 0.677734H99.999V4.67773H95.999V0.677734Z" fill="#FFA42E"/>
<path d="M119.999 0.677734H123.999V4.67773H119.999V0.677734Z" fill="#FFA42E"/>
<path d="M143.999 0.677734H147.999V4.67773H143.999V0.677734Z" fill="#FFA42E"/>
<path d="M-0.000976562 24.6777H3.99902V28.6777H-0.000976562V24.6777Z" fill="#FFA42E"/>
<path d="M23.999 24.6777H27.999V28.6777H23.999V24.6777Z" fill="#FFA42E"/>
<path d="M47.999 24.6777H51.999V28.6777H47.999V24.6777Z" fill="#FFA42E"/>
<path d="M71.999 24.6777H75.999V28.6777H71.999V24.6777Z" fill="#FFA42E"/>
<path d="M95.999 24.6777H99.999V28.6777H95.999V24.6777Z" fill="#FFA42E"/>
<path d="M119.999 24.6777H123.999V28.6777H119.999V24.6777Z" fill="#FFA42E"/>
<path d="M143.999 24.6777H147.999V28.6777H143.999V24.6777Z" fill="#FFA42E"/>
<path d="M-0.000976562 48.6777H3.99902V52.6777H-0.000976562V48.6777Z" fill="#FFA42E"/>
<path d="M23.999 48.6777H27.999V52.6777H23.999V48.6777Z" fill="#FFA42E"/>
<path d="M47.999 48.6777H51.999V52.6777H47.999V48.6777Z" fill="#FFA42E"/>
<path d="M71.999 48.6777H75.999V52.6777H71.999V48.6777Z" fill="#FFA42E"/>
<path d="M95.999 48.6777H99.999V52.6777H95.999V48.6777Z" fill="#FFA42E"/>
<path d="M119.999 48.6777H123.999V52.6777H119.999V48.6777Z" fill="#FFA42E"/>
<path d="M143.999 48.6777H147.999V52.6777H143.999V48.6777Z" fill="#FFA42E"/>
<path d="M-0.000976562 72.6777H3.99902V76.6777H-0.000976562V72.6777Z" fill="#FFA42E"/>
<path d="M23.999 72.6777H27.999V76.6777H23.999V72.6777Z" fill="#FFA42E"/>
<path d="M47.999 72.6777H51.999V76.6777H47.999V72.6777Z" fill="#FFA42E"/>
<path d="M71.999 72.6777H75.999V76.6777H71.999V72.6777Z" fill="#FFA42E"/>
<path d="M95.999 72.6777H99.999V76.6777H95.999V72.6777Z" fill="#FFA42E"/>
<path d="M119.999 72.6777H123.999V76.6777H119.999V72.6777Z" fill="#FFA42E"/>
<path d="M143.999 72.6777H147.999V76.6777H143.999V72.6777Z" fill="#FFA42E"/>
<path d="M-0.000976562 96.6777H3.99902V100.678H-0.000976562V96.6777Z" fill="#FFA42E"/>
<path d="M23.999 96.6777H27.999V100.678H23.999V96.6777Z" fill="#FFA42E"/>
<path d="M47.999 96.6777H51.999V100.678H47.999V96.6777Z" fill="#FFA42E"/>
<path d="M71.999 96.6777H75.999V100.678H71.999V96.6777Z" fill="#FFA42E"/>
<path d="M95.999 96.6777H99.999V100.678H95.999V96.6777Z" fill="#FFA42E"/>
<path d="M119.999 96.6777H123.999V100.678H119.999V96.6777Z" fill="#FFA42E"/>
<path d="M143.999 96.6777H147.999V100.678H143.999V96.6777Z" fill="#FFA42E"/>
<path d="M-0.000976562 120.678H3.99902V124.678H-0.000976562V120.678Z" fill="#FFA42E"/>
<path d="M23.999 120.678H27.999V124.678H23.999V120.678Z" fill="#FFA42E"/>
<path d="M47.999 120.678H51.999V124.678H47.999V120.678Z" fill="#FFA42E"/>
<path d="M71.999 120.678H75.999V124.678H71.999V120.678Z" fill="#FFA42E"/>
<path d="M95.999 120.678H99.999V124.678H95.999V120.678Z" fill="#FFA42E"/>
<path d="M119.999 120.678H123.999V124.678H119.999V120.678Z" fill="#FFA42E"/>
<path d="M143.999 120.678H147.999V124.678H143.999V120.678Z" fill="#FFA42E"/>
<path d="M-0.000976562 144.678H3.99902V148.678H-0.000976562V144.678Z" fill="#FFA42E"/>
<path d="M23.999 144.678H27.999V148.678H23.999V144.678Z" fill="#FFA42E"/>
<path d="M47.999 144.678H51.999V148.678H47.999V144.678Z" fill="#FFA42E"/>
<path d="M71.999 144.678H75.999V148.678H71.999V144.678Z" fill="#FFA42E"/>
<path d="M95.999 144.678H99.999V148.678H95.999V144.678Z" fill="#FFA42E"/>
<path d="M119.999 144.678H123.999V148.678H119.999V144.678Z" fill="#FFA42E"/>
<path d="M143.999 144.678H147.999V148.678H143.999V144.678Z" fill="#FFA42E"/>
</g>
</svg>
